# xmcd
#
# Track frame offsets:
#	150
#	17364
#	29916
#	44036
#	60759
#	76401
#	94628
#
# Disc length: 1413 seconds
#
# Revision: 1
# Processed by: cddbd v1.5.2PL0 Copyright (c) Steve Scherf et al.
# Submitted via: audiograbber 1.83.01
#
DISCID=4d058307
DTITLE=The Unicorns - Live Country Music
DYEAR=1900
DGENRE=Country
TTITLE0=Poor, Poor Pitiful Me
TTITLE1=Calling All You Cowboys
TTITLE2=Chattahoochee
TTITLE3=Two Highlights
TTITLE4=Love Gets Me Everytime
TTITLE5=Mister Sandman
TTITLE6=Think About You(live)
EXTD=
EXTT0=
EXTT1=
EXTT2=
EXTT3=
EXTT4=
EXTT5=
EXTT6=
PLAYORDER=
